<?xml version="1.0" encoding="iso-8859-1"?>
<!-- Generator: Adobe Illustrator 19.0.0, SVG Export Plug-In . SVG Version: 6.00 Build 0)  -->
<svg version="1.1" id="Layer_1" xmlns="http://www.w3.org/2000/svg" xmlns:xlink="http://www.w3.org/1999/xlink" x="0px" y="0px"
	 viewBox="0 0 512 512" style="enable-background:new 0 0 512 512;" xml:space="preserve">
<polygon style="fill:#FFD782;" points="256,0 286.073,27.571 322.258,8.723 344.17,43.138 384,34.297 396.258,73.212 437.02,74.98 
	438.788,115.742 477.703,128 468.862,167.83 503.277,189.742 484.429,225.927 512,256 484.429,286.073 503.277,322.258 
	468.862,344.17 477.703,384 438.788,396.258 437.02,437.02 396.258,438.788 384,477.703 344.17,468.862 322.258,503.277 
	286.073,484.429 256,512 225.927,484.429 189.742,503.277 167.83,468.862 128,477.703 115.742,438.788 74.98,437.02 73.212,396.258 
	34.297,384 43.138,344.17 8.723,322.258 27.571,286.073 0,256 27.571,225.927 8.723,189.742 43.138,167.83 34.297,128 
	73.212,115.742 74.98,74.98 115.742,73.212 128,34.297 167.83,43.138 189.742,8.723 225.927,27.571 "/>
<path style="fill:#FFFFFF;" d="M397.067,222.298c-1.39-11.24-11.719-19.264-23.043-19.264h-70.936
	c20.551-16.637,34.504-38.956,36.522-57.311c1.496-13.61-7.915-26.536-21.605-26.663c-12.277-0.114-22.271,9.705-22.271,21.955
	c0,7.948-17.25,31.534-49.579,42.029c-5.183,1.683-9.7,4.883-13.431,8.855c-9.583,10.205-30.554,28.789-56.171,28.789v132.414
	h171.336c10.136,0,19.567-6.485,22.119-16.295c2.059-7.915-0.278-15.233-4.929-20.431c8.448-3.095,14.509-11.134,14.509-20.653
	c0-5.652-2.187-10.752-5.681-14.656c8.447-3.096,14.508-11.135,14.508-20.654c0-5.652-2.187-10.752-5.681-14.656
	C391.999,242.361,398.393,233.02,397.067,222.298z"/>
<path style="fill:#FFC36E;" d="M185.379,370.759h-52.966c-4.875,0-8.828-3.953-8.828-8.828V211.862c0-4.875,3.953-8.828,8.828-8.828
	h52.966c4.875,0,8.828,3.953,8.828,8.828v150.069C194.207,366.806,190.254,370.759,185.379,370.759z"/>
<circle style="fill:#EFF2FA;" cx="158.897" cy="335.448" r="17.655"/>
<g>
</g>
<g>
</g>
<g>
</g>
<g>
</g>
<g>
</g>
<g>
</g>
<g>
</g>
<g>
</g>
<g>
</g>
<g>
</g>
<g>
</g>
<g>
</g>
<g>
</g>
<g>
</g>
<g>
</g>
</svg>
